<?xml version="1.0" standalone="no"?>
<!DOCTYPE svg PUBLIC "-//W3C//DTD SVG 20010904//EN"
 "http://www.w3.org/TR/2001/REC-SVG-20010904/DTD/svg10.dtd">
<svg version="1.0" xmlns="http://www.w3.org/2000/svg"
 width="500.000000pt" height="500.000000pt" viewBox="0 0 500.000000 500.000000"
 preserveAspectRatio="xMidYMid meet">

<g transform="translate(0.000000,500.000000) scale(0.100000,-0.100000)"
fill="#000000" stroke="none">
<path d="M2931 4054 c-127 -28 -220 -83 -349 -208 l-83 -80 110 -111 110 -110
-175 -375 c-551 -1181 -634 -1359 -634 -1369 0 -8 62 -11 198 -11 l197 0 55
126 55 126 65 30 c144 66 551 190 568 173 4 -3 37 -72 73 -153 l67 -147 -346
-348 -347 -348 107 -104 c89 -86 121 -111 193 -145 200 -98 409 -88 609 28 79
46 1059 1018 1123 1114 83 126 113 221 113 359 0 105 -21 193 -67 289 -35 72
-61 100 -587 626 -494 493 -558 554 -616 582 -137 67 -296 87 -439 56z m523
-1283 c19 -40 41 -98 47 -128 15 -66 9 -73 -69 -73 -168 0 -560 -83 -754 -159
-56 -22 -103 -39 -105 -38 -3 4 196 439 206 449 4 5 33 -51 65 -123 44 -97 63
-129 74 -124 23 9 281 55 307 55 13 0 27 4 30 10 3 5 -60 151 -140 322 -81
172 -149 320 -152 328 -3 8 98 -89 225 -215 209 -208 234 -237 266 -304z m26
-468 c-1 -5 -7 -19 -14 -32 l-14 -25 -16 32 -17 32 31 0 c16 0 30 -3 30 -7z"/>
</g>
</svg>
